<svg width="334" height="70" viewBox="0 0 334 70" fill="none" xmlns="http://www.w3.org/2000/svg">
<g filter="url(#filter0_d_1_37)">
<rect x="4" y="2" width="326" height="62" rx="8" fill="#F2F2F2" shape-rendering="crispEdges"/>
<path d="M118.739 40.224C115.523 40.224 113.059 38.08 113.059 34.128C113.059 30.224 115.587 27.952 118.739 27.952C120.435 27.952 121.619 28.688 122.387 29.456L121.139 30.976C120.547 30.416 119.875 29.984 118.819 29.984C116.835 29.984 115.475 31.52 115.475 34.048C115.475 36.64 116.659 38.176 118.979 38.176C119.555 38.176 120.131 38.016 120.467 37.744V35.408H118.355V33.472H122.579V38.8C121.779 39.6 120.371 40.224 118.739 40.224ZM128.672 40.224C126.416 40.224 124.368 38.496 124.368 35.536C124.368 32.56 126.416 30.832 128.672 30.832C130.912 30.832 132.96 32.56 132.96 35.536C132.96 38.496 130.912 40.224 128.672 40.224ZM128.672 38.32C129.888 38.32 130.56 37.216 130.56 35.536C130.56 33.84 129.888 32.752 128.672 32.752C127.44 32.752 126.768 33.84 126.768 35.536C126.768 37.216 127.44 38.32 128.672 38.32ZM138.688 40.224C136.432 40.224 134.384 38.496 134.384 35.536C134.384 32.56 136.432 30.832 138.688 30.832C140.928 30.832 142.976 32.56 142.976 35.536C142.976 38.496 140.928 40.224 138.688 40.224ZM138.688 38.32C139.904 38.32 140.576 37.216 140.576 35.536C140.576 33.84 139.904 32.752 138.688 32.752C137.456 32.752 136.784 33.84 136.784 35.536C136.784 37.216 137.456 38.32 138.688 38.32ZM148.095 43.888C145.999 43.888 144.367 43.168 144.367 41.6C144.367 40.848 144.815 40.192 145.647 39.744V39.664C145.183 39.36 144.831 38.88 144.831 38.144C144.831 37.472 145.279 36.864 145.839 36.48V36.416C145.215 35.968 144.623 35.12 144.623 34.064C144.623 31.952 146.351 30.832 148.239 30.832C148.751 30.832 149.231 30.912 149.599 31.056H152.831V32.784H151.295C151.535 33.088 151.711 33.584 151.711 34.128C151.711 36.16 150.175 37.168 148.239 37.168C147.887 37.168 147.487 37.104 147.087 36.96C146.847 37.184 146.703 37.376 146.703 37.744C146.703 38.208 147.071 38.48 148.111 38.48H149.647C151.807 38.48 152.991 39.136 152.991 40.72C152.991 42.528 151.087 43.888 148.095 43.888ZM148.239 35.728C149.023 35.728 149.647 35.12 149.647 34.064C149.647 33.008 149.039 32.432 148.239 32.432C147.455 32.432 146.831 33.008 146.831 34.064C146.831 35.12 147.455 35.728 148.239 35.728ZM148.463 42.4C149.807 42.4 150.719 41.808 150.719 41.12C150.719 40.48 150.191 40.304 149.231 40.304H148.143C147.599 40.304 147.231 40.272 146.911 40.176C146.495 40.512 146.319 40.864 146.319 41.232C146.319 41.984 147.151 42.4 148.463 42.4ZM156.714 40.224C155.066 40.224 154.506 39.152 154.506 37.488V27.248H156.858V37.584C156.858 38.144 157.098 38.32 157.322 38.32C157.402 38.32 157.466 38.32 157.626 38.288L157.914 40.032C157.642 40.128 157.274 40.224 156.714 40.224ZM163.457 40.224C160.945 40.224 158.993 38.496 158.993 35.536C158.993 32.624 161.041 30.832 163.153 30.832C165.633 30.832 166.897 32.624 166.897 35.104C166.897 35.552 166.849 35.968 166.801 36.192H161.265C161.473 37.664 162.433 38.416 163.761 38.416C164.481 38.416 165.121 38.192 165.777 37.792L166.561 39.248C165.681 39.856 164.561 40.224 163.457 40.224ZM161.233 34.624H164.897C164.897 33.408 164.353 32.64 163.201 32.64C162.257 32.64 161.425 33.312 161.233 34.624ZM168.242 38.064H181.65V39.792H168.242V38.064ZM173.858 35.264H175.986V38.768H173.858V35.264ZM169.746 27.568H180.146V32.496H171.89V34.992H169.778V30.832H178.034V29.248H169.746V27.568ZM169.778 34.144H180.482V35.856H169.778V34.144ZM190.186 27.744H191.914V29.904C191.914 33.712 190.602 37.152 187.658 38.512L186.394 36.752C188.97 35.632 190.186 32.784 190.186 29.904V27.744ZM190.602 27.744H192.33V29.904C192.33 32.64 193.498 35.36 196.026 36.448L194.778 38.16C191.914 36.848 190.602 33.552 190.602 29.904V27.744ZM196.73 26.592H198.874V41.456H196.73V26.592ZM204.584 28.128H206.328V29.056C206.328 31.856 205 34.368 202.168 35.28L201.064 33.632C203.544 32.832 204.584 30.912 204.584 29.056V28.128ZM205.016 28.128H206.744V29.056C206.744 30.8 207.752 32.608 210.152 33.376L209.064 35.024C206.296 34.128 205.016 31.712 205.016 29.056V28.128ZM201.64 27.472H209.64V29.168H201.64V27.472ZM210.824 26.608H212.952V35.536H210.824V26.608ZM212.36 30.192H214.92V31.936H212.36V30.192ZM203.064 36.176H212.952V41.424H210.824V37.888H203.064V36.176ZM225.511 26.608H227.623V41.424H225.511V26.608ZM227.143 32.384H229.767V34.16H227.143V32.384ZM215.943 28.8H224.567V30.496H215.943V28.8ZM220.279 31.328C222.439 31.328 224.039 32.8 224.039 34.864C224.039 36.928 222.439 38.4 220.279 38.4C218.119 38.4 216.519 36.928 216.519 34.864C216.519 32.8 218.119 31.328 220.279 31.328ZM220.279 33.056C219.271 33.056 218.551 33.728 218.551 34.864C218.551 36 219.271 36.672 220.279 36.672C221.287 36.672 222.007 36 222.007 34.864C222.007 33.728 221.287 33.056 220.279 33.056ZM219.207 26.848H221.335V29.44H219.207V26.848ZM240.934 26.608H243.078V41.424H240.934V26.608ZM236.566 28.144H238.678C238.678 32.672 237.142 36.384 231.878 38.928L230.774 37.232C235.03 35.184 236.566 32.496 236.566 28.528V28.144ZM231.558 28.144H237.574V29.824H231.558V28.144Z" fill="#3B3B3B"/>
<mask id="mask0_1_37" style="mask-type:luminance" maskUnits="userSpaceOnUse" x="24" y="24" width="18" height="18">
<path d="M42 24H24V42H42V24Z" fill="white"/>
</mask>
<g mask="url(#mask0_1_37)">
<path d="M41.64 33.2046C41.64 32.5665 41.5828 31.9528 41.4764 31.3637H33V34.8451H37.8436C37.635 35.9701 37.001 36.9233 36.0478 37.5615V39.8196H38.9564C40.6582 38.2528 41.64 35.9455 41.64 33.2046Z" fill="#4285F4"/>
<path d="M33.0001 41.9999C35.4301 41.9999 37.4674 41.194 38.9565 39.8195L36.0479 37.5613C35.2419 38.1013 34.211 38.4203 33.0001 38.4203C30.656 38.4203 28.6719 36.8372 27.9642 34.7099H24.9574V37.0417C26.4383 39.9831 29.4819 41.9999 33.0001 41.9999Z" fill="#34A853"/>
<path d="M27.964 34.7099C27.784 34.1699 27.6818 33.5931 27.6818 32.9999C27.6818 32.4067 27.784 31.8299 27.964 31.2899V28.9581H24.9572C24.3478 30.1731 24 31.5477 24 32.9999C24 34.4522 24.3478 35.8267 24.9572 37.0417L27.964 34.7099Z" fill="#FBBC04"/>
<path d="M33.0001 27.5796C34.3215 27.5796 35.5078 28.0336 36.4405 28.9254L39.0219 26.344C37.4633 24.8918 35.426 24 33.0001 24C29.4819 24 26.4383 26.0168 24.9574 28.9582L27.9642 31.29C28.6719 29.1628 30.656 27.5796 33.0001 27.5796Z" fill="#E94235"/>
</g>
</g>
<defs>
<filter id="filter0_d_1_37" x="0" y="0" width="334" height="70" filterUnits="userSpaceOnUse" color-interpolation-filters="sRGB">
<feFlood flood-opacity="0" result="BackgroundImageFix"/>
<feColorMatrix in="SourceAlpha" type="matrix" values="0 0 0 0 0 0 0 0 0 0 0 0 0 0 0 0 0 0 127 0" result="hardAlpha"/>
<feOffset dy="2"/>
<feGaussianBlur stdDeviation="2"/>
<feComposite in2="hardAlpha" operator="out"/>
<feColorMatrix type="matrix" values="0 0 0 0 0 0 0 0 0 0 0 0 0 0 0 0 0 0 0.1 0"/>
<feBlend mode="normal" in2="BackgroundImageFix" result="effect1_dropShadow_1_37"/>
<feBlend mode="normal" in="SourceGraphic" in2="effect1_dropShadow_1_37" result="shape"/>
</filter>
</defs>
</svg>
