<svg width="326" height="62" viewBox="0 0 326 62" fill="none" xmlns="http://www.w3.org/2000/svg">
<rect width="326" height="62" rx="8" fill="#FEE500"/>
<path d="M110.206 38V26.16H112.574V31.296H112.606L116.542 26.16H119.15L115.518 30.816L119.774 38H117.198L114.126 32.688L112.574 34.672V38H110.206ZM123.175 38.224C121.575 38.224 120.535 37.104 120.535 35.568C120.535 33.664 122.087 32.656 125.687 32.256C125.639 31.376 125.271 30.72 124.167 30.72C123.335 30.72 122.519 31.072 121.703 31.568L120.855 30C121.911 29.36 123.175 28.832 124.599 28.832C126.871 28.832 128.039 30.176 128.039 32.784V38H126.119L125.943 37.056H125.879C125.095 37.728 124.199 38.224 123.175 38.224ZM123.943 36.384C124.615 36.384 125.111 36.08 125.687 35.52V33.712C123.495 33.984 122.775 34.576 122.775 35.392C122.775 36.08 123.255 36.384 123.943 36.384ZM130.436 38V25.248H132.74V32.896H132.82L135.86 29.056H138.452L135.38 32.736L138.724 38H136.18L134.004 34.288L132.74 35.744V38H130.436ZM142.019 38.224C140.419 38.224 139.379 37.104 139.379 35.568C139.379 33.664 140.931 32.656 144.531 32.256C144.483 31.376 144.115 30.72 143.011 30.72C142.179 30.72 141.363 31.072 140.547 31.568L139.699 30C140.755 29.36 142.019 28.832 143.443 28.832C145.715 28.832 146.883 30.176 146.883 32.784V38H144.963L144.787 37.056H144.723C143.939 37.728 143.043 38.224 142.019 38.224ZM142.786 36.384C143.459 36.384 143.955 36.08 144.531 35.52V33.712C142.339 33.984 141.619 34.576 141.619 35.392C141.619 36.08 142.099 36.384 142.786 36.384ZM153.024 38.224C150.768 38.224 148.72 36.496 148.72 33.536C148.72 30.56 150.768 28.832 153.024 28.832C155.264 28.832 157.312 30.56 157.312 33.536C157.312 36.496 155.264 38.224 153.024 38.224ZM153.024 36.32C154.24 36.32 154.912 35.216 154.912 33.536C154.912 31.84 154.24 30.752 153.024 30.752C151.792 30.752 151.12 31.84 151.12 33.536C151.12 35.216 151.792 36.32 153.024 36.32ZM158.687 36.064H172.095V37.792H158.687V36.064ZM164.303 33.264H166.431V36.768H164.303V33.264ZM160.191 25.568H170.591V30.496H162.335V32.992H160.223V28.832H168.479V27.248H160.191V25.568ZM160.223 32.144H170.927V33.856H160.223V32.144ZM180.631 25.744H182.359V27.904C182.359 31.712 181.047 35.152 178.103 36.512L176.839 34.752C179.415 33.632 180.631 30.784 180.631 27.904V25.744ZM181.047 25.744H182.775V27.904C182.775 30.64 183.943 33.36 186.471 34.448L185.223 36.16C182.359 34.848 181.047 31.552 181.047 27.904V25.744ZM187.175 24.592H189.319V39.456H187.175V24.592ZM195.03 26.128H196.774V27.056C196.774 29.856 195.446 32.368 192.614 33.28L191.51 31.632C193.99 30.832 195.03 28.912 195.03 27.056V26.128ZM195.462 26.128H197.19V27.056C197.19 28.8 198.198 30.608 200.598 31.376L199.51 33.024C196.742 32.128 195.462 29.712 195.462 27.056V26.128ZM192.086 25.472H200.086V27.168H192.086V25.472ZM201.27 24.608H203.398V33.536H201.27V24.608ZM202.806 28.192H205.366V29.936H202.806V28.192ZM193.51 34.176H203.398V39.424H201.27V35.888H193.51V34.176ZM215.957 24.608H218.069V39.424H215.957V24.608ZM217.589 30.384H220.213V32.16H217.589V30.384ZM206.389 26.8H215.013V28.496H206.389V26.8ZM210.725 29.328C212.885 29.328 214.485 30.8 214.485 32.864C214.485 34.928 212.885 36.4 210.725 36.4C208.565 36.4 206.965 34.928 206.965 32.864C206.965 30.8 208.565 29.328 210.725 29.328ZM210.725 31.056C209.717 31.056 208.997 31.728 208.997 32.864C208.997 34 209.717 34.672 210.725 34.672C211.733 34.672 212.453 34 212.453 32.864C212.453 31.728 211.733 31.056 210.725 31.056ZM209.653 24.848H211.781V27.44H209.653V24.848ZM231.379 24.608H233.523V39.424H231.379V24.608ZM227.011 26.144H229.123C229.123 30.672 227.587 34.384 222.323 36.928L221.219 35.232C225.475 33.184 227.011 30.496 227.011 26.528V26.144ZM222.003 26.144H228.019V27.824H222.003V26.144Z" fill="black" fill-opacity="0.85"/>
<path fill-rule="evenodd" clip-rule="evenodd" d="M29.0001 22.6C24.0292 22.6 20 25.713 20 29.5523C20 31.9401 21.5584 34.045 23.9315 35.297L22.933 38.9446C22.8448 39.2669 23.2134 39.5238 23.4965 39.337L27.8734 36.4483C28.2427 36.4839 28.6181 36.5047 29.0001 36.5047C33.9705 36.5047 38 33.3919 38 29.5523C38 25.713 33.9705 22.6 29.0001 22.6Z" fill="black"/>
</svg>
